<svg xmlns="http://www.w3.org/2000/svg" viewBox="0 0 1024 1024">
  <defs>
    <linearGradient id="bg" x1="0" x2="0" y1="0" y2="1">
      <stop offset="0%" stop-color="#93d9ff"/>
      <stop offset="52%" stop-color="#f2dba3"/>
      <stop offset="100%" stop-color="#d5b07b"/>
    </linearGradient>
  </defs>

  <rect width="1024" height="1024" rx="224" fill="url(#bg)"/>
  <rect x="102" y="102" width="820" height="820" rx="172" fill="#fff4dc" opacity=".42"/>
  <rect x="126" y="126" width="772" height="772" rx="156" fill="#000" opacity=".08"/>

  <g transform="translate(176 176) scale(4)">
    <rect x="0" y="0" width="168" height="168" fill="#e9d59c"/>

    <g>
      <rect x="0" y="0" width="16" height="16" fill="#7cbb47"/><rect x="0" y="14" width="16" height="2" fill="#4e7f30"/>
      <rect x="16" y="0" width="16" height="16" fill="#7cbb47"/><rect x="16" y="14" width="16" height="2" fill="#4e7f30"/>
      <rect x="32" y="0" width="16" height="16" fill="#7cbb47"/><rect x="32" y="14" width="16" height="2" fill="#4e7f30"/>
      <rect x="48" y="0" width="16" height="16" fill="#7cbb47"/><rect x="48" y="14" width="16" height="2" fill="#4e7f30"/>
      <rect x="64" y="0" width="16" height="16" fill="#7cbb47"/><rect x="64" y="14" width="16" height="2" fill="#4e7f30"/>
      <rect x="80" y="0" width="16" height="16" fill="#7cbb47"/><rect x="80" y="14" width="16" height="2" fill="#4e7f30"/>
      <rect x="96" y="0" width="16" height="16" fill="#7cbb47"/><rect x="96" y="14" width="16" height="2" fill="#4e7f30"/>
      <rect x="112" y="0" width="16" height="16" fill="#7cbb47"/><rect x="112" y="14" width="16" height="2" fill="#4e7f30"/>
      <rect x="128" y="0" width="16" height="16" fill="#7cbb47"/><rect x="128" y="14" width="16" height="2" fill="#4e7f30"/>
      <rect x="144" y="0" width="16" height="16" fill="#7cbb47"/><rect x="144" y="14" width="16" height="2" fill="#4e7f30"/>
      <rect x="0" y="16" width="16" height="16" fill="#7cbb47"/><rect x="0" y="30" width="16" height="2" fill="#4e7f30"/>
      <rect x="16" y="16" width="16" height="16" fill="#7cbb47"/><rect x="16" y="30" width="16" height="2" fill="#4e7f30"/>
      <rect x="32" y="16" width="16" height="16" fill="#7cbb47"/><rect x="32" y="30" width="16" height="2" fill="#4e7f30"/>
      <rect x="48" y="16" width="16" height="16" fill="#7cbb47"/><rect x="48" y="30" width="16" height="2" fill="#4e7f30"/>
      <rect x="64" y="16" width="16" height="16" fill="#7cbb47"/><rect x="64" y="30" width="16" height="2" fill="#4e7f30"/>
      <rect x="80" y="16" width="16" height="16" fill="#7cbb47"/><rect x="80" y="30" width="16" height="2" fill="#4e7f30"/>
      <rect x="96" y="16" width="16" height="16" fill="#60bad8"/><rect x="96" y="28" width="16" height="4" fill="#2d7d99"/>
      <rect x="112" y="16" width="16" height="16" fill="#60bad8"/><rect x="112" y="28" width="16" height="4" fill="#2d7d99"/>
      <rect x="128" y="16" width="16" height="16" fill="#60bad8"/><rect x="128" y="28" width="16" height="4" fill="#2d7d99"/>
      <rect x="144" y="16" width="16" height="16" fill="#7cbb47"/><rect x="144" y="30" width="16" height="2" fill="#4e7f30"/>
      <rect x="0" y="32" width="16" height="16" fill="#7cbb47"/><rect x="0" y="46" width="16" height="2" fill="#4e7f30"/>
      <rect x="16" y="32" width="16" height="16" fill="#7cbb47"/><rect x="16" y="46" width="16" height="2" fill="#4e7f30"/>
      <rect x="32" y="32" width="16" height="16" fill="#7cbb47"/><rect x="32" y="46" width="16" height="2" fill="#4e7f30"/>
      <rect x="48" y="32" width="16" height="16" fill="#c95d49"/><rect x="48" y="44" width="16" height="4" fill="#a54139"/>
      <rect x="64" y="32" width="16" height="16" fill="#c95d49"/><rect x="64" y="44" width="16" height="4" fill="#a54139"/>
      <rect x="80" y="32" width="16" height="16" fill="#c95d49"/><rect x="80" y="44" width="16" height="4" fill="#a54139"/>
      <rect x="96" y="32" width="16" height="16" fill="#60bad8"/><rect x="96" y="44" width="16" height="4" fill="#2d7d99"/>
      <rect x="112" y="32" width="16" height="16" fill="#60bad8"/><rect x="112" y="44" width="16" height="4" fill="#2d7d99"/>
      <rect x="128" y="32" width="16" height="16" fill="#7cbb47"/><rect x="128" y="46" width="16" height="2" fill="#4e7f30"/>
      <rect x="144" y="32" width="16" height="16" fill="#7cbb47"/><rect x="144" y="46" width="16" height="2" fill="#4e7f30"/>
      <rect x="0" y="48" width="16" height="16" fill="#7cbb47"/><rect x="0" y="62" width="16" height="2" fill="#4e7f30"/>
      <rect x="16" y="48" width="16" height="16" fill="#7cbb47"/><rect x="16" y="62" width="16" height="2" fill="#4e7f30"/>
      <rect x="32" y="48" width="16" height="16" fill="#7cbb47"/><rect x="32" y="62" width="16" height="2" fill="#4e7f30"/>
      <rect x="48" y="48" width="16" height="16" fill="#ddb081"/><rect x="48" y="62" width="16" height="2" fill="#b57d50"/>
      <rect x="64" y="48" width="16" height="16" fill="#ddb081"/><rect x="64" y="62" width="16" height="2" fill="#b57d50"/>
      <rect x="80" y="48" width="16" height="16" fill="#ddb081"/><rect x="80" y="62" width="16" height="2" fill="#b57d50"/>
      <rect x="96" y="48" width="16" height="16" fill="#ddb081"/><rect x="96" y="62" width="16" height="2" fill="#b57d50"/>
      <rect x="112" y="48" width="16" height="16" fill="#7cbb47"/><rect x="112" y="62" width="16" height="2" fill="#4e7f30"/>
      <rect x="128" y="48" width="16" height="16" fill="#7cbb47"/><rect x="128" y="62" width="16" height="2" fill="#4e7f30"/>
      <rect x="144" y="48" width="16" height="16" fill="#7cbb47"/><rect x="144" y="62" width="16" height="2" fill="#4e7f30"/>
      <rect x="0" y="64" width="16" height="16" fill="#7cbb47"/><rect x="0" y="78" width="16" height="2" fill="#4e7f30"/>
      <rect x="16" y="64" width="16" height="16" fill="#7cbb47"/><rect x="16" y="78" width="16" height="2" fill="#4e7f30"/>
      <rect x="32" y="64" width="16" height="16" fill="#7cbb47"/><rect x="32" y="78" width="16" height="2" fill="#4e7f30"/>
      <rect x="48" y="64" width="16" height="16" fill="#ddb081"/><rect x="48" y="78" width="16" height="2" fill="#b57d50"/>
      <rect x="64" y="64" width="16" height="16" fill="#7cbb47"/><rect x="64" y="78" width="16" height="2" fill="#4e7f30"/>
      <rect x="80" y="64" width="16" height="16" fill="#ddb081"/><rect x="80" y="78" width="16" height="2" fill="#b57d50"/>
      <rect x="96" y="64" width="16" height="16" fill="#ddb081"/><rect x="96" y="78" width="16" height="2" fill="#b57d50"/>
      <rect x="112" y="64" width="16" height="16" fill="#7cbb47"/><rect x="112" y="78" width="16" height="2" fill="#4e7f30"/>
      <rect x="128" y="64" width="16" height="16" fill="#7cbb47"/><rect x="128" y="78" width="16" height="2" fill="#4e7f30"/>
      <rect x="144" y="64" width="16" height="16" fill="#7cbb47"/><rect x="144" y="78" width="16" height="2" fill="#4e7f30"/>
      <rect x="0" y="80" width="16" height="16" fill="#7cbb47"/><rect x="0" y="94" width="16" height="2" fill="#4e7f30"/>
      <rect x="16" y="80" width="16" height="16" fill="#7cbb47"/><rect x="16" y="94" width="16" height="2" fill="#4e7f30"/>
      <rect x="32" y="80" width="16" height="16" fill="#7cbb47"/><rect x="32" y="94" width="16" height="2" fill="#4e7f30"/>
      <rect x="48" y="80" width="16" height="16" fill="#7cbb47"/><rect x="48" y="94" width="16" height="2" fill="#4e7f30"/>
      <rect x="64" y="80" width="16" height="16" fill="#cba16d"/><rect x="64" y="94" width="16" height="2" fill="#b18557"/>
      <rect x="80" y="80" width="16" height="16" fill="#cba16d"/><rect x="80" y="94" width="16" height="2" fill="#b18557"/>
      <rect x="96" y="80" width="16" height="16" fill="#cba16d"/><rect x="96" y="94" width="16" height="2" fill="#b18557"/>
      <rect x="112" y="80" width="16" height="16" fill="#7cbb47"/><rect x="112" y="94" width="16" height="2" fill="#4e7f30"/>
      <rect x="128" y="80" width="16" height="16" fill="#7cbb47"/><rect x="128" y="94" width="16" height="2" fill="#4e7f30"/>
      <rect x="144" y="80" width="16" height="16" fill="#7cbb47"/><rect x="144" y="94" width="16" height="2" fill="#4e7f30"/>
      <rect x="0" y="96" width="16" height="16" fill="#7cbb47"/><rect x="0" y="110" width="16" height="2" fill="#4e7f30"/>
      <rect x="16" y="96" width="16" height="16" fill="#7cbb47"/><rect x="16" y="110" width="16" height="2" fill="#4e7f30"/>
      <rect x="32" y="96" width="16" height="16" fill="#7cbb47"/><rect x="32" y="110" width="16" height="2" fill="#4e7f30"/>
      <rect x="48" y="96" width="16" height="16" fill="#7cbb47"/><rect x="48" y="110" width="16" height="2" fill="#4e7f30"/>
      <rect x="64" y="96" width="16" height="16" fill="#cba16d"/><rect x="64" y="110" width="16" height="2" fill="#b18557"/>
      <rect x="80" y="96" width="16" height="16" fill="#7cbb47"/><rect x="80" y="110" width="16" height="2" fill="#4e7f30"/>
      <rect x="96" y="96" width="16" height="16" fill="#cba16d"/><rect x="96" y="110" width="16" height="2" fill="#b18557"/>
      <rect x="112" y="96" width="16" height="16" fill="#7cbb47"/><rect x="112" y="110" width="16" height="2" fill="#4e7f30"/>
      <rect x="128" y="96" width="16" height="16" fill="#7cbb47"/><rect x="128" y="110" width="16" height="2" fill="#4e7f30"/>
      <rect x="144" y="96" width="16" height="16" fill="#7cbb47"/><rect x="144" y="110" width="16" height="2" fill="#4e7f30"/>
      <rect x="0" y="112" width="16" height="16" fill="#7cbb47"/><rect x="0" y="126" width="16" height="2" fill="#4e7f30"/>
      <rect x="16" y="112" width="16" height="16" fill="#7cbb47"/><rect x="16" y="126" width="16" height="2" fill="#4e7f30"/>
      <rect x="32" y="112" width="16" height="16" fill="#7cbb47"/><rect x="32" y="126" width="16" height="2" fill="#4e7f30"/>
      <rect x="48" y="112" width="16" height="16" fill="#7cbb47"/><rect x="48" y="126" width="16" height="2" fill="#4e7f30"/>
      <rect x="64" y="112" width="16" height="16" fill="#7cbb47"/><rect x="64" y="126" width="16" height="2" fill="#4e7f30"/>
      <rect x="80" y="112" width="16" height="16" fill="#7cbb47"/><rect x="80" y="126" width="16" height="2" fill="#4e7f30"/>
      <rect x="96" y="112" width="16" height="16" fill="#7cbb47"/><rect x="96" y="126" width="16" height="2" fill="#4e7f30"/>
      <rect x="112" y="112" width="16" height="16" fill="#7cbb47"/><rect x="112" y="126" width="16" height="2" fill="#4e7f30"/>
      <rect x="128" y="112" width="16" height="16" fill="#7cbb47"/><rect x="128" y="126" width="16" height="2" fill="#4e7f30"/>
      <rect x="144" y="112" width="16" height="16" fill="#7cbb47"/><rect x="144" y="126" width="16" height="2" fill="#4e7f30"/>
      <rect x="0" y="128" width="16" height="16" fill="#7cbb47"/><rect x="0" y="142" width="16" height="2" fill="#4e7f30"/>
      <rect x="16" y="128" width="16" height="16" fill="#7cbb47"/><rect x="16" y="142" width="16" height="2" fill="#4e7f30"/>
      <rect x="32" y="128" width="16" height="16" fill="#7cbb47"/><rect x="32" y="142" width="16" height="2" fill="#4e7f30"/>
      <rect x="48" y="128" width="16" height="16" fill="#7cbb47"/><rect x="48" y="142" width="16" height="2" fill="#4e7f30"/>
      <rect x="64" y="128" width="16" height="16" fill="#7cbb47"/><rect x="64" y="142" width="16" height="2" fill="#4e7f30"/>
      <rect x="80" y="128" width="16" height="16" fill="#7cbb47"/><rect x="80" y="142" width="16" height="2" fill="#4e7f30"/>
      <rect x="96" y="128" width="16" height="16" fill="#7cbb47"/><rect x="96" y="142" width="16" height="2" fill="#4e7f30"/>
      <rect x="112" y="128" width="16" height="16" fill="#7cbb47"/><rect x="112" y="142" width="16" height="2" fill="#4e7f30"/>
      <rect x="128" y="128" width="16" height="16" fill="#7cbb47"/><rect x="128" y="142" width="16" height="2" fill="#4e7f30"/>
      <rect x="144" y="128" width="16" height="16" fill="#7cbb47"/><rect x="144" y="142" width="16" height="2" fill="#4e7f30"/>
      <rect x="0" y="144" width="16" height="16" fill="#7cbb47"/><rect x="0" y="158" width="16" height="2" fill="#4e7f30"/>
      <rect x="16" y="144" width="16" height="16" fill="#7cbb47"/><rect x="16" y="158" width="16" height="2" fill="#4e7f30"/>
      <rect x="32" y="144" width="16" height="16" fill="#7cbb47"/><rect x="32" y="158" width="16" height="2" fill="#4e7f30"/>
      <rect x="48" y="144" width="16" height="16" fill="#7cbb47"/><rect x="48" y="158" width="16" height="2" fill="#4e7f30"/>
      <rect x="64" y="144" width="16" height="16" fill="#7cbb47"/><rect x="64" y="158" width="16" height="2" fill="#4e7f30"/>
      <rect x="80" y="144" width="16" height="16" fill="#7cbb47"/><rect x="80" y="158" width="16" height="2" fill="#4e7f30"/>
      <rect x="96" y="144" width="16" height="16" fill="#7cbb47"/><rect x="96" y="158" width="16" height="2" fill="#4e7f30"/>
      <rect x="112" y="144" width="16" height="16" fill="#7cbb47"/><rect x="112" y="158" width="16" height="2" fill="#4e7f30"/>
      <rect x="128" y="144" width="16" height="16" fill="#7cbb47"/><rect x="128" y="158" width="16" height="2" fill="#4e7f30"/>
      <rect x="144" y="144" width="16" height="16" fill="#7cbb47"/><rect x="144" y="158" width="16" height="2" fill="#4e7f30"/>
    </g>

    <g>
      <rect x="20" y="20" width="4" height="7" fill="#9f6234"/>
      <rect x="14" y="12" width="16" height="14" fill="#4f8a3d"/>
      <rect x="17" y="8" width="10" height="5" fill="#7bc563"/>

      <rect x="132" y="20" width="4" height="7" fill="#9f6234"/>
      <rect x="126" y="12" width="16" height="14" fill="#4f8a3d"/>
      <rect x="129" y="8" width="10" height="5" fill="#7bc563"/>

      <rect x="18" y="122" width="4" height="7" fill="#9f6234"/>
      <rect x="12" y="114" width="16" height="14" fill="#4f8a3d"/>
      <rect x="15" y="110" width="10" height="5" fill="#7bc563"/>

      <rect x="136" y="124" width="4" height="7" fill="#9f6234"/>
      <rect x="130" y="116" width="16" height="14" fill="#4f8a3d"/>
      <rect x="133" y="112" width="10" height="5" fill="#7bc563"/>
    </g>

    <g>
      <rect x="32" y="44" width="2" height="6" fill="#4d8a31"/>
      <rect x="31" y="40" width="4" height="4" fill="#f2c04c"/>
      <rect x="48" y="44" width="2" height="6" fill="#4d8a31"/>
      <rect x="47" y="40" width="4" height="4" fill="#ff87a8"/>
      <rect x="32" y="60" width="2" height="6" fill="#4d8a31"/>
      <rect x="31" y="56" width="4" height="4" fill="#f2c04c"/>
      <rect x="48" y="60" width="2" height="6" fill="#4d8a31"/>
      <rect x="47" y="56" width="4" height="4" fill="#f2c04c"/>
    </g>

    <g>
      <rect x="82" y="102" width="4" height="2" fill="#412a16" opacity=".18"/>
      <rect x="80" y="90" width="8" height="3" fill="#70452f"/>
      <rect x="79" y="93" width="10" height="3" fill="#8d5a3b"/>
      <rect x="80" y="96" width="8" height="5" fill="#f0c39a"/>
      <rect x="81" y="97" width="2" height="2" fill="#2b2b2b"/>
      <rect x="85" y="97" width="2" height="2" fill="#2b2b2b"/>
      <rect x="82" y="100" width="4" height="1" fill="#b97d65"/>
      <rect x="79" y="101" width="10" height="4" fill="#d9574e"/>
      <rect x="78" y="101" width="1" height="5" fill="#f0c39a"/>
      <rect x="89" y="101" width="1" height="5" fill="#f0c39a"/>
      <rect x="81" y="105" width="6" height="3" fill="#3e6ab6"/>
      <rect x="81" y="108" width="2" height="4" fill="#63493d"/>
      <rect x="85" y="108" width="2" height="4" fill="#63493d"/>
      <rect x="80" y="112" width="3" height="2" fill="#2f2f38"/>
      <rect x="85" y="112" width="3" height="2" fill="#2f2f38"/>
    </g>
  </g>
</svg>
